<svg width="50" height="50" viewBox="0 0 50 50" fill="none" xmlns="http://www.w3.org/2000/svg">
<path fill-rule="evenodd" clip-rule="evenodd" d="M4.7766 4.77621C5.59019 3.96262 6.90929 3.96262 7.72288 4.77621L14.0583 11.1116C17.4076 9.28762 21.1694 8.32774 25.0011 8.33268C35.2658 8.3333 43.9475 15.0801 46.8685 24.3747C46.9965 24.7822 46.9963 25.2191 46.8677 25.6264C45.5125 29.9202 42.9317 33.7024 39.4692 36.5225L45.2229 42.2762C46.0365 43.0898 46.0365 44.4089 45.2229 45.2225C44.4093 46.0361 43.0902 46.0361 42.2766 45.2225L34.8033 37.7492C34.8028 37.7487 34.8023 37.7482 34.8018 37.7477L27.9456 30.8935C27.927 30.875 27.9089 30.8562 27.8911 30.837L19.1059 22.0539C19.0874 22.0353 19.0692 22.0165 19.0514 21.9973L4.7766 7.72249C3.96301 6.9089 3.96301 5.5898 4.7766 4.77621ZM23.9202 20.9752L29.0242 26.0779C29.1175 25.7294 29.1659 25.3674 29.1659 25.0004C29.1659 23.8952 28.7269 22.8352 27.9454 22.0537C27.1639 21.2722 26.1039 20.8332 24.9987 20.8332C24.6313 20.8332 24.269 20.8817 23.9202 20.9752ZM32.1778 29.2329C32.9275 27.9612 33.3326 26.5017 33.3326 25.0004C33.3326 22.7901 32.4545 20.6704 30.8916 19.1075C29.3287 17.5446 27.209 16.6665 24.9987 16.6665C23.4978 16.6665 22.0387 17.0714 20.7673 17.8206L17.1604 14.2137C19.6079 13.085 22.2809 12.4957 24.9969 12.4993L24.9997 12.4993C33.1609 12.4993 40.1084 17.7143 42.6846 24.9982C41.4819 28.3893 39.3336 31.3578 36.5039 33.5576L32.1778 29.2329ZM9.63248 17.0281C10.5497 17.7227 10.7302 19.0294 10.0356 19.9467C8.87302 21.4818 7.95553 23.1863 7.31451 24.9994C9.8904 32.2839 16.8381 37.4994 24.9997 37.4994C26.18 37.5003 27.3592 37.3903 28.5189 37.171C29.6495 36.9573 30.7393 37.7005 30.953 38.831C31.1668 39.9616 30.4236 41.0514 29.2931 41.2652C27.8771 41.5329 26.4392 41.6671 24.9981 41.666C24.9976 41.666 24.9987 41.666 24.9981 41.666C14.7336 41.6653 6.052 34.9185 3.13099 25.624C3.00319 25.2173 3.00321 24.7812 3.13105 24.3745C3.91793 21.8716 5.12992 19.5228 6.71391 17.4312C7.40854 16.5139 8.71523 16.3335 9.63248 17.0281Z" fill="black"/>
</svg>
