<svg width="50" height="50" viewBox="0 0 50 50" fill="none" xmlns="http://www.w3.org/2000/svg">
<path fill-rule="evenodd" clip-rule="evenodd" d="M25.0003 20.8327C23.8953 20.8327 22.8354 21.2717 22.054 22.0531C21.2726 22.8345 20.8337 23.8943 20.8337 24.9993C20.8337 26.1044 21.2726 27.1642 22.054 27.9456C22.8354 28.727 23.8953 29.166 25.0003 29.166C26.1054 29.166 27.1652 28.727 27.9466 27.9456C28.728 27.1642 29.167 26.1044 29.167 24.9993C29.167 23.8943 28.728 22.8345 27.9466 22.0531C27.1652 21.2717 26.1054 20.8327 25.0003 20.8327ZM19.1078 19.1068C20.6706 17.544 22.7902 16.666 25.0003 16.666C27.2105 16.666 29.3301 17.544 30.8929 19.1068C32.4557 20.6696 33.3337 22.7892 33.3337 24.9993C33.3337 27.2095 32.4557 29.3291 30.8929 30.8919C29.3301 32.4547 27.2105 33.3327 25.0003 33.3327C22.7902 33.3327 20.6706 32.4547 19.1078 30.8919C17.545 29.3291 16.667 27.2095 16.667 24.9993C16.667 22.7892 17.545 20.6696 19.1078 19.1068Z" fill="black"/>
<path fill-rule="evenodd" clip-rule="evenodd" d="M7.31629 25.0006C9.89025 32.2848 16.8397 37.5007 24.9996 37.5007C33.1615 37.5007 40.109 32.2849 42.6829 25.0006C40.109 17.7164 33.1615 12.5007 24.9996 12.5007C16.8397 12.5007 9.89025 17.7165 7.31629 25.0006ZM3.13281 24.3765C6.05186 15.0809 14.7366 8.33398 24.9996 8.33398C35.2648 8.33398 43.9474 15.081 46.8664 24.3765C46.994 24.7828 46.994 25.2185 46.8664 25.6248C43.9474 34.9203 35.2648 41.6673 24.9996 41.6673C14.7366 41.6673 6.05186 34.9204 3.13281 25.6248C3.00521 25.2185 3.00521 24.7828 3.13281 24.3765Z" fill="black"/>
</svg>
